<svg xmlns="http://www.w3.org/2000/svg" viewBox="0 0 512 512">
<defs>
<radialGradient id="bg" cx="42%" cy="36%" r="80%"><stop offset="0" stop-color="#231A52"/><stop offset=".55" stop-color="#0E0B26"/><stop offset="1" stop-color="#05040C"/></radialGradient>
<radialGradient id="glow" cx="50%" cy="50%" r="50%"><stop offset="0" stop-color="#FFD2B4" stop-opacity=".55"/><stop offset=".45" stop-color="#B69CFF" stop-opacity=".18"/><stop offset="1" stop-color="#B69CFF" stop-opacity="0"/></radialGradient>
<filter id="soft" x="-50%" y="-50%" width="200%" height="200%"><feGaussianBlur stdDeviation="10"/></filter>
</defs>
<rect width="512" height="512" fill="url(#bg)"/>
<circle cx="256" cy="262" r="215.04" fill="url(#glow)"/>
<g transform="translate(-309.86 114.77) scale(4.4344)">
<path d="M131.73,55.92c-2.4-1.26-4.96-1.52-7.27-.36l-7.92,4c-1.44.72-2.92,1.04-4.53,1.02-3.6-.05-6.36-3.01-5.8-6.64l1.48-9.59c.36-2.29-.74-4.33-2.38-5.86l-5.66-5.24c-1.92-1.77-2.48-4.28-1.76-6.91.6-2.2,2.83-3.73,5.38-4.33l8.79-2.07c2.2-.52,3.75-1.73,4.93-3.6l4.62-7.27c1.32-2.08,3.57-3.1,5.76-3.24,2.47-.16,4.94.74,6.35,2.91l4.57,7c1.12,1.72,2.45,3.45,4.48,3.99l10.28,2.68c3.55.93,5.34,4.42,4.27,7.94-.49,1.64-1.56,2.99-2.83,4.15l-4.95,4.52c-1.76,1.61-2.3,3.81-1.89,6.18l1.42,8.27c.33,1.92-.14,3.69-1.3,5.08-2.22,2.63-6.22,2.52-9.47.81l-6.56-3.46Z" fill="#FFD2B4" filter="url(#soft)" opacity=".7"/>
<path d="M131.73,55.92c-2.4-1.26-4.96-1.52-7.27-.36l-7.92,4c-1.44.72-2.92,1.04-4.53,1.02-3.6-.05-6.36-3.01-5.8-6.64l1.48-9.59c.36-2.29-.74-4.33-2.38-5.86l-5.66-5.24c-1.92-1.77-2.48-4.28-1.76-6.91.6-2.2,2.83-3.73,5.38-4.33l8.79-2.07c2.2-.52,3.75-1.73,4.93-3.6l4.62-7.27c1.32-2.08,3.57-3.1,5.76-3.24,2.47-.16,4.94.74,6.35,2.91l4.57,7c1.12,1.72,2.45,3.45,4.48,3.99l10.28,2.68c3.55.93,5.34,4.42,4.27,7.94-.49,1.64-1.56,2.99-2.83,4.15l-4.95,4.52c-1.76,1.61-2.3,3.81-1.89,6.18l1.42,8.27c.33,1.92-.14,3.69-1.3,5.08-2.22,2.63-6.22,2.52-9.47.81l-6.56-3.46Z" fill="#FFD2B4"/>
</g>
</svg>